<svg xmlns="http://www.w3.org/2000/svg" height="772.905" width="674.011" id="svg2" version="1.1"><path id="path4487" d="M328.006 770.832C315.286 764.256 8.085 586.339 5.633 584.128c-6-5.41-5.627 7.68-5.627-197.591 0-206.725-.441-192.41 6.105-197.894 2.94-2.462 306.038-177.864 320.895-185.7 6.157-3.248 13.693-3.885 18-1.522 19.267 10.57 322.015 186.208 323.795 187.848 5.507 5.072 5.205-6.378 5.205 197.268 0 205.27.373 192.166-5.627 197.604-1.58 1.432-75.323 44.407-163.873 95.5-154.192 88.968-161.232 92.909-166.5 93.206-4.229.24-6.54-.227-10-2.015zm-7.01-159.045-.01-113.25-8.74-4.173c-50.08-23.912-73.79-112.48-49.752-185.859 6.673-20.373 16.234-36.4 29.596-49.61 7.17-7.09 10.508-9.532 18.578-13.589l9.838-4.945.291-28.412c.461-45-1.426-60.294-9.388-76.105-8.763-17.4-24.218-27.16-47.249-29.838-12.52-1.455-28.709-.1-42.347 3.546a6453.68 6453.68 0 0 0-13.807 3.706c-5.093 1.378-163.938 92.539-168.373 96.629-5.985 5.52-5.627-5.727-5.627 176.65 0 185.208-.513 171.486 6.635 177.382 2.126 1.753 29.515 17.967 60.865 36.031l57 32.844.252-227.066.253-227.067 2.247-2.443c5.369-5.836 23.966-11.57 30.039-9.26l2.71 1.03.04 242.774.04 242.775 61.71 35.658c33.94 19.612 62.497 35.7 63.46 35.75 1.656.087 1.749-5.93 1.74-113.158zm120.01 54.212c3.575-.563 11.675-2.425 18-4.139l11.5-3.115 81.5-46.98c44.825-25.838 82.334-47.709 83.353-48.601 4.878-4.273 4.648 4.47 4.63-176.327l-.015-169.3-2.265-4c-2.076-3.666-7.213-6.857-61.584-38.25-32.626-18.838-59.5-34.25-59.72-34.25-.219 0-.398 63.39-.398 140.865 0 140.538 0 140.871-2.052 143.474-4.738 6.023-22.137 11.336-30.362 9.272l-2.586-.65V120.342l-62.162-35.902c-34.188-19.746-62.538-36.052-63-36.235-.461-.184-.839 43.051-.839 96.077v96.41l9.546 4.74c7.79 3.867 11.172 6.336 18.387 13.422 26.425 25.954 40.281 67.513 38.739 116.184-1.798 56.719-24.241 102.492-58.422 119.15l-8.25 4.021v29.522c0 25.423.202 29.443 1.455 28.963.8-.307 12.119-6.993 25.152-14.857 13.033-7.865 48.491-28.985 78.795-46.935l55.098-32.636.258 65.636c.296 75.458 1.281 68.282-10.156 74.006-6.94 3.474-16.564 5.109-22.016 3.74l-2.586-.648V562.91c0-37.522-.167-42.024-1.543-41.496-1.796.69-43.118 25.067-51.957 30.651-3.3 2.085-12.75 7.785-21 12.667s-23.274 13.795-33.388 19.808l-18.387 10.932.625 9.532c1.76 26.808 12.999 46.353 31.875 55.432 4.249 2.043 10.549 4.329 14 5.078 7.513 1.632 30.692 1.914 39.775.484zM348.72 462.493c17.053-8.498 30.944-33.625 36.462-65.956 1.76-10.315 1.975-14.81 1.53-32-.569-21.956-2.388-32.39-8.644-49.573-6.471-17.772-18.583-33.704-29.56-38.884-22.719-10.72-46.607 13.494-57.179 57.957-3.433 14.437-4.348 43.148-1.905 59.765 4.09 27.81 15.794 52.823 30.083 64.287 9.398 7.54 19.78 9.104 29.213 4.404z" style="fill:#1f2020"/></svg>