<svg aria-hidden="true" style="width:0;height:0;position:absolute;overflow:hidden" xmlns="http://www.w3.org/2000/svg"><defs><symbol id="icon-check" viewBox="0 0 45 32"><path d="M14.255 25.313 3.564 15.283 0 18.626l14.255 13.373L44.8 3.342 41.236-.001 14.254 25.312z"/></symbol><symbol id="icon-github" viewBox="0 0 32 32"><path d="M16 3.2C8.931 3.2 3.2 8.931 3.2 16c0 5.998 4.13 11.017 9.698 12.405a1.861 1.861 0 0 1-.098-.622v-2.188h-1.609c-.876 0-1.654-.377-2.032-1.076-.419-.778-.492-1.967-1.531-2.694-.308-.242-.074-.518.282-.481.656.186 1.2.636 1.712 1.303.51.669.75.82 1.702.82.462 0 1.153-.027 1.804-.129.35-.889.955-1.707 1.694-2.093-4.262-.438-6.297-2.559-6.297-5.438 0-1.239.528-2.438 1.425-3.449-.294-1.003-.665-3.047.113-3.826 1.918 0 3.077 1.244 3.356 1.58a9.604 9.604 0 0 1 3.108-.513c1.105 0 2.159.186 3.117.515.275-.334 1.436-1.582 3.358-1.582.781.78.406 2.833.109 3.834.892 1.008 1.417 2.204 1.417 3.441 0 2.877-2.031 4.996-6.287 5.437 1.171.611 2.026 2.329 2.026 3.622v2.916c0 .111-.025.191-.037.286 4.988-1.748 8.571-6.484 8.571-12.069 0-7.069-5.731-12.8-12.8-12.8z"/></symbol><symbol id="icon-linkedin" viewBox="0 0 32 32"><path d="M25.6 4.267H6.4A2.132 2.132 0 0 0 4.267 6.4v19.2c0 1.179.955 2.133 2.133 2.133h19.2a2.132 2.132 0 0 0 2.133-2.133V6.4A2.132 2.132 0 0 0 25.6 4.267zm-13.916 19.2H8.537V13.342h3.147v10.125zm-1.605-11.573a1.835 1.835 0 1 1 0-3.67 1.835 1.835 0 0 1 0 3.67zm13.392 11.573h-3.145v-4.924c0-1.174-.021-2.685-1.635-2.685-1.637 0-1.889 1.279-1.889 2.599v5.009h-3.145V13.341h3.019v1.383h.043c.42-.796 1.446-1.635 2.977-1.635 3.186 0 3.775 2.097 3.775 4.823v5.553z"/></symbol><symbol id="icon-telegram" viewBox="0 0 32 32"><path d="M29.402 2.839 1.051 13.828c-1.141.512-1.527 1.537-.276 2.093l7.273 2.323L25.633 7.32c.96-.686 1.943-.503 1.097.251L11.626 21.317l-.474 5.817c.439.898 1.244.902 1.757.456l4.179-3.974 7.157 5.387c1.662.989 2.567.351 2.924-1.462l4.694-22.342c.487-2.232-.344-3.215-2.462-2.36z"/></symbol></defs></svg>