<?xml version="1.0" encoding="UTF-8" standalone="no"?>
<svg
   xmlns:dc="http://purl.org/dc/elements/1.1/"
   xmlns:cc="http://creativecommons.org/ns#"
   xmlns:rdf="http://www.w3.org/1999/02/22-rdf-syntax-ns#"
   xmlns:svg="http://www.w3.org/2000/svg"
   xmlns="http://www.w3.org/2000/svg"
   viewBox="0 0 674.0108 772.90533"
   height="772.90533"
   width="674.0108"
   id="svg2"
   version="1.1">
  <metadata
     id="metadata8">
    <rdf:RDF>
      <cc:Work
         rdf:about="">
        <dc:format>image/svg+xml</dc:format>
        <dc:type
           rdf:resource="http://purl.org/dc/dcmitype/StillImage" />
        <dc:title></dc:title>
      </cc:Work>
    </rdf:RDF>
  </metadata>
  <defs
     id="defs6" />
  <path
     id="path4487"
     d="M 328.00624,770.83158 C 315.28536,764.25552 8.0849911,586.33942 5.6330811,584.12811 -0.36654886,578.71722 0.00624114,591.8081 0.00624114,386.53689 c 0,-206.72497 -0.44162,-192.40959 6.10483996,-197.89353 2.93901,-2.462 306.0378789,-177.864468 320.8951589,-185.701134 6.15702,-3.24760203 13.69276,-3.88454303 18,-1.521408 19.26692,10.570661 322.01438,186.207842 323.79488,187.847722 5.5072,5.07227 5.2051,-6.3776 5.2051,197.26835 0,205.2699 0.3732,192.16601 -5.6268,197.60409 -1.5803,1.43225 -75.3232,44.40725 -163.8732,95.5 -154.19204,88.96778 -161.23255,92.90904 -166.49998,93.20639 -4.22885,0.23873 -6.54003,-0.22716 -10,-2.01579 z m -7.00964,-159.04469 -0.01,-113.25 -8.74035,-4.17318 c -50.08064,-23.91175 -73.78963,-112.47972 -49.75256,-185.85838 6.6737,-20.373 16.23451,-36.39949 29.59619,-49.61118 7.17043,-7.08993 10.50837,-9.53119 18.57861,-13.58773 l 9.83775,-4.94499 0.29098,-28.41227 c 0.46087,-44.99973 -1.42581,-60.29413 -9.38813,-76.10519 -8.76269,-17.40037 -24.21762,-27.16019 -47.24881,-29.83771 -12.52072,-1.45561 -28.70917,-0.1 -42.34729,3.54621 -5.11871,1.36849 -11.33175,3.03606 -13.80675,3.70569 -5.09372,1.37816 -163.937989,92.53843 -168.373159,96.62888 -5.98508,5.51989 -5.62684,-5.72665 -5.62684,176.64985 0,185.20856 -0.5133,171.48611 6.63506,177.38165 2.12572,1.75316 29.51494,17.96743 60.864939,36.0317 l 57,32.84412 0.25217,-227.06659 0.25217,-227.0666 2.24783,-2.44362 c 5.36844,-5.83605 23.96535,-11.56926 30.03812,-9.26039 l 2.70971,1.03023 0.0401,242.77475 0.0401,242.77475 61.70988,35.65836 c 33.94044,19.6121 62.49739,35.6996 63.45989,35.75 1.65696,0.0868 1.74949,-5.92949 1.74036,-113.15836 z m 120.00962,54.21166 c 3.575,-0.56278 11.675,-2.42496 18,-4.13817 l 11.5,-3.11494 81.5,-46.97956 c 44.825,-25.83875 82.3336,-47.70962 83.3524,-48.60191 4.8783,-4.27257 4.6487,4.46958 4.6312,-176.32742 l -0.016,-169.29966 -2.2649,-4 c -2.076,-3.66635 -7.213,-6.85692 -61.5843,-38.25 -32.6257,-18.8375 -59.4991,-34.25 -59.7187,-34.25 -0.2195,0 -0.3992,63.38931 -0.3992,140.86514 0,140.538 0,140.8712 -2.0519,143.47368 -4.7376,6.02287 -22.1371,11.33645 -30.362,9.27213 l -2.5861,-0.64905 V 277.16988 120.34096 l -62.1616,-35.902032 c -34.18855,-19.74612 -62.53855,-36.052039 -62.99995,-36.235372 -0.46141,-0.183334 -0.83893,43.051532 -0.83893,96.077474 v 96.41081 l 9.5458,4.73878 c 7.78993,3.86713 11.17207,6.33608 18.38707,13.42253 26.42441,25.95357 40.28131,67.51296 38.73851,116.18374 -1.7979,56.71909 -24.24101,102.49184 -58.42138,119.15048 l -8.25,4.02083 v 29.52134 c 0,25.42318 0.20196,29.44383 1.45485,28.96305 0.80017,-0.30706 12.11847,-6.9927 25.15177,-14.85699 13.0333,-7.86429 48.49116,-28.98486 78.79516,-46.93461 l 55.0982,-32.63589 0.2578,65.63589 c 0.2964,75.4585 1.2812,68.28196 -10.1561,74.00637 -6.9401,3.47353 -16.5643,5.10869 -22.0156,3.74048 l -2.5861,-0.64905 v -42.08794 c 0,-37.52172 -0.1674,-42.0237 -1.543,-41.49584 -1.7965,0.6894 -43.1186,25.06662 -51.957,30.65114 -3.3,2.08509 -12.75,7.78512 -21,12.66674 -8.24998,4.88162 -23.27447,13.79525 -33.38775,19.80807 l -18.38776,10.93239 0.62554,9.53177 c 1.7593,26.80745 12.99856,46.35305 31.87483,55.43178 4.24866,2.04343 10.54866,4.32861 14,5.07816 7.51324,1.63171 30.69144,1.91346 39.77514,0.48349 z m -92.2872,-203.50582 c 17.05291,-8.49783 30.94351,-33.62454 36.46184,-65.95584 1.76048,-10.31451 1.9754,-14.80916 1.53012,-32 -0.56872,-21.95635 -2.38813,-32.39011 -8.64444,-49.57315 -6.47068,-17.77183 -18.58273,-33.70422 -29.5603,-38.88413 -22.71819,-10.71986 -46.60668,13.4941 -57.17825,57.95728 -3.43266,14.43749 -4.34761,43.14832 -1.90457,59.76475 4.0888,27.81017 15.79376,52.82379 30.08282,64.28731 9.39759,7.53929 19.77985,9.1044 29.21278,4.40378 z"
     style="fill:#1f2020" />
</svg>
