<svg aria-hidden="true" style="position: absolute; width: 0; height: 0; overflow: hidden;" version="1.1" xmlns="http://www.w3.org/2000/svg" xmlns:xlink="http://www.w3.org/1999/xlink">
<defs>
<symbol id="icon-check" viewBox="0 0 45 32">
<path d="M14.255 25.313l-10.691-10.030-3.564 3.343 14.255 13.373 30.545-28.657-3.564-3.343-26.982 25.313z"></path>
</symbol>
<symbol id="icon-github" viewBox="0 0 32 32">
<path d="M16 3.2c-7.069 0-12.8 5.731-12.8 12.8 0 5.998 4.13 11.017 9.698 12.405-0.060-0.173-0.098-0.373-0.098-0.622v-2.188c-0.519 0-1.39 0-1.609 0-0.876 0-1.654-0.377-2.032-1.076-0.419-0.778-0.492-1.967-1.531-2.694-0.308-0.242-0.074-0.518 0.282-0.481 0.656 0.186 1.2 0.636 1.712 1.303 0.51 0.669 0.75 0.82 1.702 0.82 0.462 0 1.153-0.027 1.804-0.129 0.35-0.889 0.955-1.707 1.694-2.093-4.262-0.438-6.297-2.559-6.297-5.438 0-1.239 0.528-2.438 1.425-3.449-0.294-1.003-0.665-3.047 0.113-3.826 1.918 0 3.077 1.244 3.356 1.58 0.956-0.327 2.005-0.513 3.108-0.513 1.105 0 2.159 0.186 3.117 0.515 0.275-0.334 1.436-1.582 3.358-1.582 0.781 0.78 0.406 2.833 0.109 3.834 0.892 1.008 1.417 2.204 1.417 3.441 0 2.877-2.031 4.996-6.287 5.437 1.171 0.611 2.026 2.329 2.026 3.622v2.916c0 0.111-0.025 0.191-0.037 0.286 4.988-1.748 8.571-6.484 8.571-12.069 0-7.069-5.731-12.8-12.8-12.8z"></path>
</symbol>
<symbol id="icon-linkedin" viewBox="0 0 32 32">
<path d="M25.6 4.267h-19.2c-1.179 0-2.133 0.955-2.133 2.133v19.2c0 1.179 0.955 2.133 2.133 2.133h19.2c1.179 0 2.133-0.955 2.133-2.133v-19.2c0-1.179-0.955-2.133-2.133-2.133zM11.684 23.467h-3.147v-10.125h3.147v10.125zM10.079 11.894c-1.014 0-1.835-0.822-1.835-1.835s0.821-1.834 1.835-1.834c1.011 0 1.834 0.822 1.834 1.834 0 1.012-0.822 1.835-1.834 1.835zM23.471 23.467h-3.145v-4.924c0-1.174-0.021-2.685-1.635-2.685-1.637 0-1.889 1.279-1.889 2.599v5.009h-3.145v-10.125h3.019v1.383h0.043c0.42-0.796 1.446-1.635 2.977-1.635 3.186 0 3.775 2.097 3.775 4.823v5.553z"></path>
</symbol>
<symbol id="icon-telegram" viewBox="0 0 32 32">
<path d="M29.402 2.839l-28.351 10.989c-1.141 0.512-1.527 1.537-0.276 2.093l7.273 2.323 17.585-10.924c0.96-0.686 1.943-0.503 1.097 0.251l-15.104 13.746-0.474 5.817c0.439 0.898 1.244 0.902 1.757 0.456l4.179-3.974 7.157 5.387c1.662 0.989 2.567 0.351 2.924-1.462l4.694-22.342c0.487-2.232-0.344-3.215-2.462-2.36z"></path>
</symbol>
</defs>
</svg>
